<?xml version="1.0" encoding="UTF-8" standalone="no"?>
<!-- Created with Inkscape (http://www.inkscape.org/) -->

<svg
   version="1.1"
   id="svg1"
   width="839.09985"
   height="396.99924"
   viewBox="0 0 839.09985 396.99924"
   xmlns="http://www.w3.org/2000/svg"
   xmlns:svg="http://www.w3.org/2000/svg">
  <defs
     id="defs1" />
  <g
     id="g1"
     transform="translate(-116.93995,-305)">
    <path
       style="fill:#000000"
       d="m 270.5,695.64436 c -53.49258,-26.14607 -95.48956,-60.51178 -121.66623,-99.55824 -17.3823,-25.92834 -27.33143,-53.80624 -30.79777,-86.29671 -1.5894,-14.8977 -1.39359,-146.91812 0.22119,-149.12646 0.91716,-1.25429 4.77135,-2.25843 14.25,-3.71259 44.34716,-6.80348 87.53217,-20.79436 137.50426,-44.54801 C 278.57649,308.33106 286.2913,305 287.15548,305 c 0.86417,0 7.04555,2.6942 13.73638,5.98711 47.22177,23.24029 89.06945,37.24297 134.39738,44.97079 9.23408,1.57429 17.44658,3.40789 18.25,4.07467 2.23261,1.8529 2.16408,144.29434 -0.0766,159.22401 C 444.32217,580.15966 409.38683,629.78547 347,670.48727 c -23.02037,15.01873 -54.55054,31.51329 -60.23667,31.51198 -1.97691,-4.6e-4 -8.38799,-2.50559 -16.26333,-6.35489 z M 292,628.99971 c 4.90636,-1.38659 58.91425,-29.59077 68.77273,-35.91472 9.11129,-5.84465 13.6135,-10.44322 16.40682,-16.75799 1.78595,-4.03743 1.87504,-7.0644 1.60566,-54.55081 L 378.5,471.5 l -2.40107,-3.36653 c -2.81473,-3.94652 -9.09136,-7.08046 -14.24287,-7.11151 L 358.21212,461 357.74456,441.75 c -0.50738,-20.88885 -1.47348,-26.20544 -6.78383,-37.33227 -6.13134,-12.84708 -18.53884,-25.62308 -31.03234,-31.95402 -11.22128,-5.68625 -17.39652,-6.96614 -33.42839,-6.92841 -13.61148,0.032 -15.75263,0.28712 -23.13052,2.75576 -15.89838,5.31958 -32.03525,18.91943 -39.64748,33.41415 -6.09884,11.61302 -7.73741,19.92166 -8.04524,40.79479 l -0.26546,18 -5.1499,0.63398 c -6.24207,0.76844 -11.08031,3.59759 -13.7614,8.04695 -1.92978,3.20254 -2,5.09209 -2,53.81907 0,48.17192 0.0906,50.6844 1.96452,54.5 4.51553,9.19415 16.39371,17.05915 57.03548,37.76541 30.88272,15.73419 31.12177,15.81947 38.5,13.7343 z m -19.95985,-60.76612 -2.18142,-1.7664 3.91445,-15.56298 3.91445,-15.56298 -3.96266,-3.32685 c -9.57492,-8.03864 -10.10775,-20.09151 -1.26475,-28.60934 4.71406,-4.54072 11.67443,-6.94866 16.92778,-5.85615 9.46424,1.96823 16.70327,10.23751 16.75173,19.13581 0.036,6.60905 -1.52489,10.10296 -6.64251,14.86871 l -4.36738,4.0671 3.91499,15.43974 3.915,15.43975 -2.0907,1.75 c -3.09886,2.59387 -25.62126,2.58105 -28.82898,-0.0164 z m -31.02537,-122.4735 c 0.0218,-22.4967 2.86997,-32.06372 12.55473,-42.17129 7.78337,-8.12318 16.08101,-12.22409 27.43049,-13.55688 18.47103,-2.16907 37.89157,7.90538 45.92788,23.8252 4.35476,8.62674 4.98331,12.22941 5.25897,30.14288 l 0.25391,16.5 -45.72038,0.26009 L 241,461.02018 Z M 534.4018,564.57962 C 517.27117,560.66908 506.19114,549.5293 501.49959,531.5 c -3.68092,-14.14553 -3.68731,-56.27076 -0.0107,-70.5 6.00584,-23.24383 24.55913,-36.46091 48.6443,-34.65345 18.14576,1.36174 31.02526,11.31307 36.79014,28.42587 1.14217,3.39047 2.07667,8.43911 2.07667,11.21921 v 5.05472 l -12.25,-0.52023 -12.25,-0.52023 -0.6667,-4.50013 c -1.48912,-10.05135 -8.31036,-15.99017 -18.37728,-15.99991 -9.57858,-0.009 -15.03551,4.97777 -18.11015,16.55069 -2.50325,9.42223 -2.51354,50.564 -0.015,59.88692 3.05186,11.38746 8.79541,16.45081 18.66912,16.45818 9.49383,0.007 15.81789,-4.90531 18.15099,-14.09932 l 0.96489,-3.80232 11.69206,0.14301 11.69206,0.14301 0.31669,3.1516 c 0.43448,4.32388 -3.31258,15.10792 -7.23767,20.83001 -9.06042,13.2085 -29.12417,19.9331 -47.17722,15.81199 z M 902.5,564.9609 c -19.67982,-4.03422 -30.88945,-16.31443 -35.1079,-38.4609 -2.09656,-11.00676 -2.35663,-45.71565 -0.43458,-58 3.22941,-20.64007 12.82396,-33.89906 28.7677,-39.75493 8.44891,-3.10315 25.43374,-3.02303 33.55709,0.1583 14.86763,5.82256 25.67685,20.89041 26.08081,36.35614 L 955.5,470.5 l -12,-0.21891 c -10.61982,-0.19373 -12.03748,-0.42376 -12.3259,-2 -1.78274,-9.74291 -5.62743,-15.14309 -12.70584,-17.84636 -3.0954,-1.18215 -5.71516,-1.49096 -8.65723,-1.0205 C 896.28158,451.57767 892,462.77638 892,496 c 0,16.33466 1.36175,29.53345 3.60097,34.90249 3.76471,9.02672 12.61282,13.44519 22.28018,11.12602 6.0705,-1.45629 9.80191,-5.18446 12.15968,-12.14913 l 1.77003,-5.22853 11.84104,0.25438 c 6.51257,0.13991 12.02736,0.44069 12.25508,0.66841 0.78828,0.78829 -2.09187,11.94857 -4.4245,17.14443 -2.96574,6.60611 -9.98328,14.14811 -16.42801,17.65577 -8.68358,4.72619 -22.4282,6.66287 -32.55447,4.58706 z M 602.74668,563.28201 C 602.52066,562.85191 602.40742,532.35 602.49502,495.5 l 0.15927,-67 14.21231,-0.2777 14.21231,-0.27769 1.3977,3.34518 c 0.76874,1.83985 7.06342,19.06481 13.98817,38.2777 6.92476,19.21288 12.83985,35.60751 13.14466,36.43251 0.30481,0.825 6.89518,-16.39908 14.64526,-38.27574 l 14.09107,-39.77575 14.57711,0.27575 L 717.5,428.5 l 0.20105,67.24323 0.20106,67.24324 -2.20106,0.54994 C 714.49047,563.83888 709.225,563.95442 704,563.79317 L 694.5,563.5 694.23949,519.75 c -0.14328,-24.0625 -0.64953,-43.75 -1.125,-43.75 -0.47547,0 -1.15939,1.2375 -1.51982,2.75 -0.36044,1.5125 -5.71215,15.575 -11.89269,31.25 l -11.23735,28.5 h -8.42173 -8.42172 l -2.1759,-5.5 c -1.19675,-3.025 -6.84901,-17.38824 -12.56059,-31.91831 L 626.5,474.66339 626,519.08169 625.5,563.5 l -11.1712,0.28201 c -6.14416,0.15511 -11.35611,-0.0699 -11.58212,-0.5 z m 134.72556,-0.49908 C 737.2026,562.07732 737.09854,531.575 737.24099,495 L 737.5,428.5 h 14.5 14.5 l 13.24569,37.5 c 7.28512,20.625 13.24762,38.0625 13.25,38.75 0.016,4.64693 3.17067,-2.9098 13.98495,-33.5 6.75667,-19.1125 13.10533,-36.67498 14.10814,-39.02772 l 1.82329,-4.27773 14.18635,0.27773 14.18635,0.27772 0.0135,66.79416 c 0.009,42.88367 -0.34187,67.14949 -0.97916,67.78678 -0.56888,0.56888 -5.43797,0.8702 -11.40585,0.70585 L 828.5,563.5 828,519.5 c -0.39046,-34.36017 -0.7531,-43.45228 -1.65523,-41.5 -1.0279,2.22445 -13.4384,34.32668 -20.79385,53.78745 l -2.75439,7.28745 -8.49311,-0.28745 L 785.81032,538.5 773.65516,507.18507 761.5,475.87014 761,519.68507 760.5,563.5 l -11.26875,0.28293 c -8.45785,0.21235 -11.39104,-0.0371 -11.75901,-1 z"
       id="path1" />
  </g>
</svg>
